PathFileType	4	(X/Y/Z)	./resultDataOpenSim/trcMotMarkerGrf/sub06/qtm-15-05.trc
DataRate	CameraRate	NumFrames	NumMarkers	Units	OrigDataRate	OrigDataStartFrame	OrigNumFrames
250.000000	250.000000	8	24	m	250.000000	65	513
Frame#	Time	L.Toe.Tip			R.Toe.Tip			L.Ankle.Lat			R.Ankle.Lat			L.Ankle.Med			R.Ankle.Med			L.Heel			R.Heel			L.Knee.Lat			R.Knee.Lat			L.Knee.Med			R.Knee.Med			L.Thigh.Upper			R.Thigh.Upper			L.ASIS			R.ASIS			V.Sacral			L.Acromium			R.Acromium			C7			L.Elbow			R.Elbow			L.Wrist.Lat			R.Wrist.Lat
		X1	Y1	Z1	X2	Y2	Z2	X3	Y3	Z3	X4	Y4	Z4	X5	Y5	Z5	X6	Y6	Z6	X7	Y7	Z7	X8	Y8	Z8	X9	Y9	Z9	X10	Y10	Z10	X11	Y11	Z11	X12	Y12	Z12	X13	Y13	Z13	X14	Y14	Z14	X15	Y15	Z15	X16	Y16	Z16	X17	Y17	Z17	X18	Y18	Z18	X19	Y19	Z19	X20	Y20	Z20	X21	Y21	Z21	X22	Y22	Z22	X23	Y23	Z23	X24	Y24	Z24

65	0.256	-1.4662614	0.047434087	-0.13348497	-0.69765185	0.036761253	0.053523314	-1.4585809	0.17736602	-0.16475029	-0.83288726	0.061968	0.074237665	-1.4445387	0.17790107	-0.082156123	-0.81543002	0.079023693	-0.013397183	-1.5042153	0.2328738	-0.11671082	-0.88777778	0.037552093	0.012629786	-1.1274503	0.37311626	-0.17100759	-0.80579914	0.44892957	0.091435655	-1.1267515	0.3614739	-0.05394463	-0.84764279	0.43045587	-0.028170052	-1.0447351	0.75056343	-0.1876384	-0.98955318	0.77618199	0.15659383	-0.95749988	0.79839218	-0.15175798	-0.91564036	0.82302421	0.085504909	-1.1191678	0.89105916	-0.010201506	-0.97162414	1.2922176	-0.19017622	-0.98938833	1.2726266	0.17265505	-1.0556886	1.3258723	-0.013236599	-0.96888104	0.96766	-0.26229054	-1.1408142	0.99622069	0.21248726	-0.75601588	0.84337277	-0.21886132	-1.1039034	0.76957492	0.27729299
66	0.26	-1.4605122	0.049941836	-0.13332046	-0.69741105	0.036523983	0.053425143	-1.4487063	0.18053425	-0.16421327	-0.83290521	0.06194986	0.074013523	-1.4340274	0.18058682	-0.081750164	-0.81491996	0.078816214	-0.013521891	-1.491831	0.23792002	-0.11751588	-0.88766801	0.037580406	0.012535977	-1.1154476	0.37231283	-0.17132923	-0.80180125	0.44815934	0.092115134	-1.1132995	0.35970964	-0.054583609	-0.84207735	0.43063246	-0.027887055	-1.0369399	0.75096653	-0.18677679	-0.98254858	0.77724705	0.15726588	-0.95022576	0.7990355	-0.1508364	-0.90882785	0.82389614	0.086346792	-1.1120199	0.89172882	-0.0088655904	-0.96516005	1.2929342	-0.18969284	-0.98245353	1.2733823	0.17312542	-1.049233	1.326731	-0.012714298	-0.96350537	0.96844434	-0.26169351	-1.1329994	0.99618456	0.21332276	-0.75126597	0.84307508	-0.21848258	-1.0933258	0.76999928	0.27858473
67	0.264	-1.4535705	0.052636711	-0.13318057	-0.69726108	0.036350469	0.053391578	-1.4386295	0.18366826	-0.16356941	-0.83283245	0.061874997	0.073887583	-1.423245	0.18331409	-0.081274294	-0.81447193	0.078676814	-0.013560138	-1.4796725	0.24233234	-0.11734195	-0.88760855	0.037602761	0.0124953	-1.1032194	0.37159311	-0.17166865	-0.79816392	0.44739153	0.092893163	-1.0998936	0.35822432	-0.055118461	-0.836871	0.43070386	-0.027520599	-1.0291902	0.75152826	-0.18594961	-0.97540722	0.7782822	0.15810146	-0.94302789	0.79977755	-0.15000377	-0.90248703	0.82468638	0.087072562	-1.1052266	0.89265942	-0.007081103	-0.95876616	1.2936872	-0.18926603	-0.9755337	1.2741876	0.17356522	-1.0427916	1.3276661	-0.012181318	-0.9581183	0.96929343	-0.26102823	-1.1251959	0.99613719	0.21407436	-0.74657934	0.84278549	-0.21814301	-1.0825282	0.77044262	0.27983329
68	0.268	-1.4454627	0.055515819	-0.13309364	-0.69717265	0.036216301	0.053432468	-1.4283001	0.18681113	-0.1628712	-0.83274321	0.061747543	0.073837938	-1.4123061	0.18610329	-0.080717922	-0.81409243	0.078606076	-0.013531713	-1.4678171	0.24612957	-0.11620386	-0.88758929	0.037620089	0.012500778	-1.0907696	0.37095307	-0.1720084	-0.79450453	0.44668682	0.093767167	-1.0867475	0.35704498	-0.055510496	-0.83204945	0.43067063	-0.02708754	-1.0215816	0.75225676	-0.18519495	-0.96875298	0.77920761	0.15885471	-0.93589536	0.80062749	-0.1492307	-0.89633002	0.82546709	0.087778473	-1.0986682	0.8938231	-0.0049207797	-0.95243026	1.2944897	-0.18889404	-0.96862903	1.2750435	0.17397674	-1.036361	1.328682	-0.011628711	-0.95275268	0.97018488	-0.26030477	-1.1172692	0.99613249	0.21496657	-0.74193565	0.84251795	-0.21783508	-1.0718203	0.77087692	0.2809998
69	0.272	-1.4362892	0.058560107	-0.13301824	-0.69712742	0.036108336	0.053535628	-1.4175475	0.18995935	-0.1621899	-0.8326764	0.061609751	0.073825864	-1.4012783	0.18897204	-0.080046054	-0.8137653	0.078594969	-0.013457289	-1.4562554	0.24939785	-0.11428496	-0.88759684	0.037632138	0.012532355	-1.0781377	0.37040246	-0.17234529	-0.79059696	0.44609435	0.09475995	-1.073843	0.35620305	-0.055749542	-0.8276562	0.43053507	-0.026584684	-1.0141536	0.75314353	-0.18452208	-0.96273765	0.78002805	0.15938328	-0.92881907	0.8015937	-0.14848779	-0.89011178	0.82628173	0.088550838	-1.0919885	0.89508611	-0.0026270232	-0.94614787	1.2953536	-0.18856865	-0.96175031	1.2759545	0.17436852	-1.0299408	1.3297852	-0.011064863	-0.94742555	0.97111659	-0.2595384	-1.1091794	0.99619467	0.21606983	-0.73729112	0.84228598	-0.21754182	-1.0612928	0.77131095	0.2820854
70	0.276	-1.4261299	0.061703026	-0.1328747	-0.69711817	0.036021204	0.053669973	-1.4062753	0.19307348	-0.16155823	-0.83263868	0.061501917	0.073821873	-1.3901463	0.19192221	-0.079249909	-0.81347486	0.078625248	-0.013358521	-1.4449782	0.25228305	-0.11203568	-0.88762021	0.03763941	0.012569771	-1.065401	0.36996833	-0.17268292	-0.78663071	0.44561547	0.095889113	-1.0610156	0.35570992	-0.055858264	-0.82369386	0.43031384	-0.026012449	-1.0068487	0.7541507	-0.18388374	-0.95718613	0.78078203	0.15967474	-0.92179503	0.80268033	-0.14775165	-0.88377559	0.82713835	0.089404326	-1.0849601	0.89632302	-0.00053229859	-0.9399234	1.2962862	-0.18827571	-0.95491598	1.2769293	0.17475206	-1.0235297	1.3309763	-0.010504085	-0.94214404	0.97209648	-0.25874857	-1.1009757	0.99631561	0.21730136	-0.73260971	0.8420955	-0.21724841	-1.0508567	0.77176229	0.28311238
71	0.28	-1.4150358	0.064830488	-0.13258947	-0.69713926	0.035950286	0.053807952	-1.3946848	0.19613121	-0.16090882	-0.83262952	0.061436121	0.073817181	-1.3787401	0.19493566	-0.078395483	-0.81321843	0.078678177	-0.013252271	-1.4339025	0.25499961	-0.11003116	-0.88765264	0.037643762	0.012602221	-1.0526391	0.36968401	-0.17300114	-0.78293087	0.44520026	0.097119726	-1.0481761	0.35554654	-0.055859923	-0.82007725	0.43004881	-0.025383808	-0.99959796	0.75524078	-0.18323141	-0.95183871	0.78151951	0.15982776	-0.91483236	0.80388405	-0.1470216	-0.87739664	0.82803275	0.090310107	-1.0778838	0.89753404	0.00091846512	-0.93376175	1.2972884	-0.18800657	-0.94813753	1.2779806	0.17513134	-1.0171272	1.3322489	-0.0099495406	-0.93691291	0.97313377	-0.2579489	-1.0927144	0.99648165	0.21855907	-0.72792875	0.84194244	-0.21696963	-1.0404519	0.77222545	0.28409594
72	0.284	-1.4030725	0.067822245	-0.13213678	-0.69718543	0.035891887	0.053941464	-1.3830872	0.19912201	-0.1601284	-0.8326469	0.061401332	0.073819175	-1.3667633	0.19798603	-0.077596202	-0.81299863	0.078743748	-0.013141846	-1.4228009	0.25769716	-0.108542	-0.8876913	0.037647761	0.012628462	-1.0398814	0.36958329	-0.17326617	-0.77961727	0.44475193	0.098340724	-1.0353421	0.35568576	-0.055770035	-0.81668045	0.42979603	-0.024711229	-0.99238386	0.75639573	-0.18255595	-0.94641351	0.78231501	0.16000807	-0.90794608	0.80519102	-0.14631964	-0.87105068	0.82896659	0.091243536	-1.0714496	0.8987987	0.0010788464	-0.92766198	1.2983564	-0.18775866	-0.94141063	1.2791156	0.17549776	-1.0107376	1.3335969	-0.0093942313	-0.9317374	0.97423551	-0.25714196	-1.0844242	0.99668952	0.2197881	-0.72339235	0.84181736	-0.21675764	-1.0300854	0.77269587	0.28504368
